<svg width="86" height="142" viewBox="0 0 86 142" fill="none" xmlns="http://www.w3.org/2000/svg">
<path d="M71.5429 94.3343C72.3074 95.1345 72.8052 95.6323 73.3208 96.1122C74.2438 97.0609 74.7438 98.3432 74.707 99.6668C74.707 101.302 74.707 102.938 74.6177 104.555C74.3152 107.56 73.7817 110.546 73.515 113.55L73.5161 113.552C73.1244 118.538 72.4235 123.496 71.4179 128.395C70.8844 131.138 70.1478 133.835 69.2137 136.467C68.775 137.96 67.6199 139.136 66.1345 139.601C64.6491 140.065 63.0297 139.756 61.8188 138.778C60.7976 137.979 60.1023 136.835 59.8634 135.56C59.4371 133.865 59.1279 132.142 58.9382 130.404C58.311 122.746 58.2273 115.053 58.6893 107.382C58.8087 103.759 59.9828 100.25 62.0676 97.2848C62.6279 96.2803 62.9504 95.162 63.0096 94.0136C63.312 91.5962 63.5073 89.1419 63.6669 86.7068C64.1826 79.0451 64.6446 71.3819 65.1781 63.7202C65.6045 57.6757 66.0844 51.6488 66.5475 45.6219C66.6547 44.1286 66.7607 42.6174 66.85 41.1242V41.1253C66.4995 40.7615 66.119 40.4278 65.7116 40.1287C62.6759 38.2872 60.6133 35.1944 60.0765 31.6844C59.0965 26.7615 59.0965 21.6921 60.0765 16.7693C60.8588 12.6441 61.7472 8.55612 62.601 4.44898C62.6892 3.99138 62.8075 3.54049 62.9559 3.09852C63.0954 2.51369 63.6177 2.10298 64.2182 2.10298C64.9113 2.10298 65.3209 2.54718 65.3912 3.52486C65.3912 4.91103 65.3912 6.31615 65.5329 7.70229C65.7818 11.8797 65.9068 16.0763 66.3689 20.1466H66.37C66.7751 23.026 67.3387 25.8809 68.0586 28.698C68.3856 30.0507 69.0877 31.2839 70.0854 32.2537C70.4671 32.7079 71.0296 32.9702 71.6234 32.9702C72.216 32.9702 72.7785 32.708 73.1602 32.2537C73.8187 31.6935 74.3979 31.0472 74.8845 30.3341C75.4471 29.3162 75.8723 28.228 76.1468 27.0986C77.4805 21.9112 78.4013 16.6266 78.9024 11.2941C79.062 8.16578 79.2584 5.01835 79.4359 1.89006V1.88895C79.4214 1.65792 79.4638 1.42578 79.5609 1.21372C79.7383 0.946978 80.0229 0.556347 80.2718 0.556347C80.7093 0.505007 81.1479 0.640052 81.4805 0.929118C81.8578 1.51395 82.1178 2.16572 82.2451 2.84989C83.1513 7.41903 84.129 11.9705 84.8589 16.5742C85.6703 22.2359 85.5687 27.9927 84.5564 33.6233C83.9727 36.7182 82.4158 39.5462 80.1121 41.6936C79.4213 42.3019 78.6088 42.7561 77.7293 43.0273C76.3086 43.3309 74.9838 43.9782 73.8722 44.9113L71.5429 94.3343ZM63.294 14.0486C61.7304 19.1435 61.2583 24.5095 61.9067 29.7997C62.3342 33.888 64.1121 37.4437 68.343 39.0263C68.737 39.2518 69.0964 39.533 69.4089 39.8623C68.9647 44.5731 68.4669 49.196 68.093 53.8177C67.7191 58.4405 67.4881 62.8845 67.1689 67.4002C66.8486 71.916 66.3687 76.6802 66.1198 81.32C65.8709 85.9594 65.391 90.5465 65.3553 95.2931H65.3564C66.7559 95.4605 68.1689 95.119 69.3387 94.3333C69.5519 90.5464 69.765 86.7238 69.9436 82.9024C70.2996 75.2407 70.6724 67.5598 70.9927 59.8801L70.9916 59.879C71.3688 54.9996 71.4458 50.1022 71.2226 45.2127C71.1612 44.4025 71.1612 43.5877 71.2226 42.7775C71.2226 41.6045 71.8454 41.1949 73.0898 41.2842H73.428H73.4269C74.697 41.5453 76.0151 41.4147 77.2092 40.9103C78.4023 40.4047 79.4145 39.5498 80.112 38.4572C81.5283 36.4449 82.3977 34.0977 82.6355 31.648C82.8308 30.1547 82.9558 28.6435 83.0439 27.1323H83.0451C83.3486 22.7137 83.0796 18.274 82.2448 13.9237C82.025 13.2686 81.7393 12.6369 81.391 12.0398C80.5194 16.7687 79.756 21.1247 78.9379 25.4618C78.4446 28.2185 77.3921 30.8435 75.8453 33.1772C74.9648 34.3513 73.6098 35.0745 72.1445 35.1527C70.6802 35.2319 69.255 34.6582 68.2539 33.5868C67.1579 32.3647 66.3499 30.9127 65.889 29.338C64.8488 25.762 64.2517 22.0723 64.1122 18.3514C64.1925 16.8715 63.9124 15.3948 63.2941 14.0488L63.294 14.0486ZM63.169 114.546C62.6534 115.151 62.4938 115.488 62.2271 115.631V115.629C61.4949 115.885 60.9279 116.472 60.7003 117.213C60.4726 117.954 60.6098 118.759 61.0719 119.381C61.4168 119.993 61.4168 120.742 61.0719 121.355C60.813 121.868 60.6735 122.433 60.6623 123.008C60.8219 126.03 61.0005 129.035 61.3197 132.039H61.3208C61.4134 133.674 61.9213 135.259 62.7963 136.643C63.1177 137.157 63.6545 137.496 64.2572 137.566C64.8588 137.635 65.4603 137.426 65.8889 136.999C66.6266 136.262 67.2282 135.402 67.6668 134.456C68.1021 133.258 68.4469 132.028 68.6981 130.777C70.2137 123.846 71.2483 116.819 71.7918 109.745C72.0764 106.854 72.313 103.962 72.5027 101.07C72.5485 100.257 72.4703 99.4419 72.2717 98.6518C72.1634 98.0681 71.8275 97.5513 71.3364 97.2176C70.8454 96.8839 70.2405 96.76 69.6579 96.8739C68.2996 97.1752 66.9637 97.567 65.6579 98.048C64.4692 98.5134 63.515 99.4353 63.0094 100.608C61.1221 104.467 60.3755 108.783 60.8588 113.053L63.169 114.546Z" fill="black"/>
<path d="M0.734314 14.7422C1.88946 14.5112 2.81465 14.3337 3.66745 14.1909C5.05251 13.9888 6.44759 13.8694 7.84602 13.8359C14.8326 13.8359 21.8192 13.9609 28.8057 14.0312H37.8906H37.8895C39.7611 13.9699 41.6283 14.2467 43.4006 14.8493C44.0669 16.3627 44.3426 18.0191 44.2008 19.6662C44.2265 26.5411 43.7086 33.4073 42.6539 40.1996C42.1383 44.1359 40.8191 47.9239 38.7791 51.3291C38.0146 52.4842 37.1083 53.5511 36.2545 54.6716V54.6705C35.4744 55.695 34.3829 56.4373 33.1428 56.7866C31.1339 57.4093 29.1605 58.1024 27.1874 58.7955C26.2097 59.1337 25.2499 59.5421 24.1651 59.9506C24.0167 60.8759 23.9151 61.8067 23.8638 62.7419V80.5199C23.8638 81.8001 23.9709 83.0802 23.8638 84.3602C23.7232 86.3468 24.3604 88.3099 25.6406 89.8356C26.3504 90.9015 26.8013 92.1191 26.9564 93.3902C27.7544 97.4908 28.1406 101.659 28.1127 105.836C27.9531 112.36 27.7221 118.867 27.366 125.391V125.39C27.2935 129.242 26.5479 133.051 25.1607 136.644C24.6819 137.82 24.0859 138.946 23.3828 140.004C22.9732 140.734 22.2365 141.222 21.4039 141.313C20.5725 141.405 19.7466 141.09 19.1874 140.466C18.7533 140.081 18.3973 139.617 18.1383 139.098C16.9598 136.821 16.1952 134.354 15.8805 131.809C15.2578 125.658 14.9743 119.506 14.9564 113.338C14.9564 106.707 14.6718 100.058 15.2946 93.4451C15.3839 92.396 15.2946 91.3648 16.2544 90.5823C17.0758 89.7329 17.4575 88.551 17.2857 87.3814V74.4574C17.2857 70.1548 17.5167 66.0834 17.6238 61.8883V59.9329C16.5569 59.5244 15.5435 59.0266 14.4598 58.7063H14.4587C11.0602 57.6985 8.29359 55.2186 6.92073 51.9506C4.95645 47.7286 3.54016 43.2709 2.70759 38.6883C1.71316 33.07 1.16631 27.3803 1.07254 21.6749C1.01896 19.5421 0.859369 17.3377 0.734366 14.7417L0.734314 14.7422ZM3.29457 16.8404C3.45416 20.2533 3.52559 23.5067 3.77448 26.7244C4.04122 30.2801 4.34368 33.8361 4.87717 37.3907H4.87605C5.57917 41.999 6.91956 46.4867 8.85919 50.7244C9.6929 52.7311 11.098 54.4499 12.8995 55.6664C14.7008 56.8829 16.8192 57.5448 18.992 57.5693C21.6237 57.912 24.3 57.5939 26.7789 56.6441C28.0702 56.0604 29.4083 55.585 30.7789 55.2222C32.7075 54.6821 34.4172 53.5503 35.6672 51.9868C37.0187 50.5247 38.0332 48.7825 38.636 46.8842C39.3648 44.324 40.1293 41.7471 40.6092 39.1154L40.6103 39.1165C41.6025 32.9088 42.0601 26.6276 41.9786 20.3431C41.9217 19.1522 41.8034 17.9658 41.6237 16.7873C39.8458 16.592 38.2286 16.2896 36.6283 16.2539C30.9217 16.1289 25.2332 16.1121 19.5258 16.005C15.97 16.005 12.5392 15.7918 9.0549 15.7739C7.07053 15.5172 5.05491 15.89 3.29491 16.8409L3.29457 16.8404ZM17.2857 119.4C17.1953 119.785 17.1417 120.178 17.1261 120.575C17.4643 124.877 17.7132 129.179 18.2288 133.446L18.2277 133.445C18.5424 135.157 19.0681 136.823 19.7924 138.405C19.99 138.847 20.4286 139.131 20.9118 139.131C21.3962 139.131 21.8348 138.847 22.0324 138.405C22.2813 138.014 22.4766 137.587 22.7076 137.178C24.096 134.349 24.8773 131.261 25.0011 128.113C25.817 119.884 26.1138 111.613 25.8895 103.348C25.8895 100.451 25.3918 97.5523 25.0536 94.6729L25.0547 94.6717C24.9375 93.7454 24.7042 92.838 24.3616 91.9697C24.0391 90.9854 23.2299 90.2376 22.2221 89.9954C21.2154 89.7521 20.154 90.049 19.4185 90.7789C18.2556 91.7778 17.5179 93.1829 17.3572 94.7075C16.8817 99.0823 16.7924 103.491 17.0904 107.88L19.49 108.947C19.3482 110.227 18.4051 110.299 17.712 110.725C17.4029 111.019 17.2176 111.419 17.1964 111.846C17.1964 112.041 17.6049 112.326 17.8716 112.485C18.423 112.806 19.0089 113.054 19.4721 113.285C19.3125 114.904 17.125 114.263 17.2143 115.846C19.0982 117.108 19.0982 117.108 19.0815 117.73L17.2857 119.4ZM19.8638 87.969C20.539 87.5951 21.2332 87.4534 21.3928 87.0806H21.3917C21.6038 86.4143 21.6819 85.7134 21.6239 85.0181V73.1598C21.6239 69.1955 21.4453 65.2849 21.4453 61.3384C21.3716 60.95 21.2332 60.5783 21.0368 60.2357C20.7165 60.2357 20.5569 60.2357 20.5033 60.3774C20.4498 60.5192 20.1294 60.7335 20.1294 60.9288C19.9631 69.2848 19.8091 77.6453 19.6674 86.0136C19.6875 86.6688 19.7533 87.3228 19.8638 87.969Z" fill="black"/>
<path d="M13.4971 52.1458C13.0529 51.8254 12.448 51.5944 12.217 51.1681C11.8744 50.4382 11.6523 49.658 11.5596 48.8578C10.7594 43.2395 9.90672 37.6224 9.26612 31.9861C8.89223 28.5375 8.87549 25.053 8.75049 21.5687C8.73821 20.9649 8.82862 20.3633 9.01723 19.7908C9.15339 19.2127 9.60763 18.7629 10.1869 18.6345C10.7672 18.5051 11.3688 18.7205 11.7371 19.1859C12.5239 20.322 13.1244 21.5765 13.515 22.9013C14.092 25.0307 14.5083 27.1993 14.7595 29.3901C15.2215 33.4201 15.5887 37.4616 15.8621 41.5153C15.9871 43.2932 15.755 45.2127 15.755 47.0621C15.7963 49.0086 14.9693 50.8713 13.4972 52.1458L13.4971 52.1458ZM11.3644 24.2709C11.2025 30.0466 11.7103 35.8212 12.8744 41.4795C12.8744 41.7641 13.2304 42.0308 13.4257 42.2976C13.0887 36.235 13.3197 30.137 11.3644 24.2707L11.3644 24.2709Z" fill="black"/>
<path d="M29.1772 42.8686C29.5399 36.7112 30.4316 30.5963 31.8445 24.5929C32.0187 23.6811 32.474 22.8485 33.147 22.2101C33.82 21.5728 34.676 21.1621 35.5957 21.0371C36.1637 20.8083 36.8111 20.8898 37.3055 21.2503C37.801 21.6119 38.0744 22.2034 38.0309 22.815C38.1682 24.6688 38.1325 26.5316 37.9238 28.3787C37.4796 31.4904 36.7865 34.5473 36.1459 37.623C35.7898 39.4009 35.4349 41.267 34.9729 43.0807V43.0818C34.6168 44.545 34.1593 45.9824 33.6046 47.3833C33.2675 48.1199 32.7831 48.7795 32.1816 49.3219C31.7586 49.7382 31.1403 49.8889 30.5733 49.7136C30.0052 49.5395 29.5789 49.0685 29.4617 48.4859C29.3032 47.4558 29.214 46.4167 29.195 45.3754C29.1771 44.5573 29.1771 43.6856 29.1771 42.8687L29.1772 42.8686ZM35.2574 23.0817C34.032 25.2123 33.2853 27.584 33.0711 30.0326C31.4181 38.2457 31.2931 41.3037 31.9862 44.5392C33.3199 40.0057 34.1547 35.6509 35.1145 31.4723H35.1156C35.5152 29.1978 35.7652 26.8997 35.8623 24.5929C35.8969 24.3261 35.6659 24.0058 35.2574 23.0996L35.2574 23.0817Z" fill="black"/>
<path d="M20.68 34.7601C20.68 31.5067 20.805 28.2536 20.911 24.9821C20.9557 23.7958 21.0807 22.6138 21.2849 21.4442C21.2012 20.462 21.93 19.5993 22.911 19.5156C23.8932 19.4319 24.757 20.1607 24.8407 21.1417C25.2414 22.2276 25.5215 23.3549 25.6755 24.5023C25.8708 26.3561 25.9534 28.22 25.9244 30.0848C25.9244 34.7423 25.747 39.4005 25.5159 44.0403C25.3932 45.538 25.0583 47.0103 24.5204 48.4131C24.2916 48.9689 23.7771 49.3551 23.1789 49.4187C22.5818 49.4812 21.9981 49.2111 21.6577 48.7156C20.8619 47.7033 20.4356 46.4488 20.449 45.1599V39.5773C20.449 37.7101 20.6264 36.3239 20.7157 34.7056L20.68 34.7601ZM23.1153 35.4889L23.3641 35.6485C23.3641 34.2791 23.5595 32.9287 23.5952 31.5594L23.5963 31.5605C23.565 30.921 23.488 30.286 23.3653 29.6576H23.0271L23.1153 35.4889ZM23.3653 39.2221H22.9914C22.8664 39.9687 22.7068 40.7333 22.6532 41.4799C22.5996 42.2265 22.6532 42.8493 22.6532 43.5424C23.065 42.5882 23.3173 41.5737 23.3999 40.5378C23.4255 40.0992 23.4144 39.6584 23.3653 39.222V39.2221Z" fill="black"/>
</svg>
