<svg width="102" height="89" viewBox="0 0 102 89" fill="none" xmlns="http://www.w3.org/2000/svg">
<path d="M92.9436 46.777C96.3122 49.3859 96.6399 49.8622 96.9832 53.3656C97.0112 54.1741 96.8737 54.9808 96.5808 55.735C96.2935 56.9683 95.7891 58.1389 95.0901 59.1936C93.2271 61.4441 93.5995 64.5002 92.0349 66.7808C94.4941 70.7605 94.509 70.7755 92.4073 75.3812C89.9481 80.7618 86.4446 85.3085 80.6467 87.1119C77.4324 87.9494 74.1134 88.3162 70.7941 88.2001C61.269 88.2001 51.73 88.2001 42.2202 87.9765C36.2765 87.7856 30.3456 87.2878 24.4531 86.4858C21.2931 85.93 18.2041 85.0307 15.2416 83.8031C11.9635 82.6147 9.1217 80.4635 7.08742 77.6317C5.70156 75.7088 4.18092 73.8607 2.8241 71.9076H2.82503C2.22241 70.8736 1.69463 69.7975 1.24453 68.6885L7.10232 66.2144C7.54961 64.9024 6.93856 64.1426 5.82033 63.3529C1.34835 60.2677 1.06568 59.2245 2.42155 54.2013L2.42249 54.2003C2.52075 53.8597 2.58531 53.5098 2.61619 53.157C2.89972 48.8936 2.89972 48.8936 5.6863 46.4643C4.75243 46.3287 3.82603 46.1396 2.91371 45.8973C2.09962 45.6605 1.38096 45.173 0.858806 44.5039C0.337586 43.8349 0.0390789 43.0189 0.00726628 42.1711C-0.111574 40.3679 1.24434 39.4883 2.82489 38.9362C4.04699 38.5038 5.2391 37.9677 6.78973 37.3417C5.37392 35.1501 6.47625 33.2132 7.13222 31.2901C12.0804 16.8467 21.4716 6.87483 36.3026 2.32811C47.6485 -1.39047 59.9874 -0.632524 70.7934 4.44478C79.3004 8.24481 85.8524 15.4005 88.888 24.2098C90.1101 27.5636 91.0496 31.0222 92.3467 34.3458C92.8885 35.493 93.7213 36.4793 94.7609 37.2072C96.2516 38.3554 98.0548 39.1302 99.5603 40.1885C101.066 41.2467 102.542 42.439 101.796 44.6604C101.319 46.1511 98.6508 47.463 96.6828 47.3133C95.5656 47.2833 94.4333 46.9998 92.9427 46.7761L92.9436 46.777ZM59.9572 47.2842C56.9759 46.6432 56.2609 47.9102 57.6618 52.2774C57.7291 51.1592 57.9285 50.0541 58.2578 48.9835C58.5854 48.2677 59.435 47.7764 60.0461 47.1953C60.7469 48.7898 59.3012 50.7577 60.9257 52.1886C60.7919 50.5781 62.3274 48.5811 59.9572 47.2842V47.2842ZM90.2318 36.1047C89.0247 32.3037 87.8915 28.6524 86.7143 25.075C83.9855 16.8197 77.9023 10.0981 69.9604 6.56207C60.1864 1.89821 49.0343 1.00659 38.6437 4.05802C23.738 8.0528 14.1997 17.5918 9.35352 32.0642C8.44396 34.762 8.57871 34.8518 11.1127 36.1627C16.106 38.7417 21.5465 39.4417 27.0169 39.8H27.016C45.2004 40.9267 63.4448 40.6478 81.5861 38.9653C84.6526 38.8063 87.6226 37.8452 90.2016 36.1786L90.2318 36.1047ZM86.6695 66.6597L88.3838 63.4399L91.2603 63.6794L90.1421 61.1303L92.8998 59.0286C92.6275 58.062 92.6883 57.0327 93.072 56.1054C93.4566 55.178 94.1406 54.407 95.0165 53.9157L93.4509 50.1147C90.9421 50.752 88.3988 51.2498 85.8348 51.6054C82.2873 51.9329 78.695 51.859 75.1177 52.0227C74.0903 51.9263 73.0572 52.1229 72.1365 52.5889C69.4686 54.8843 66.2636 55.0182 63.0737 55.2117C58.0805 55.5102 53.0872 55.8527 48.168 54.2432C45.1868 53.2747 44.397 52.3502 44.1134 49.2799H44.1143C43.9496 48.4321 43.7306 47.5956 43.4583 46.7759L41.5803 50.2642L43.5622 52.7235C41.3707 53.037 39.6862 53.3196 37.9878 53.4833C36.9229 53.5956 35.8487 53.5956 34.7828 53.4833C29.2376 52.8423 23.6034 52.9612 18.148 51.5304L18.149 51.5314C17.0036 51.2796 15.8086 51.3788 14.7205 51.814C10.7856 53.3935 10.8445 53.4384 7.68553 50.4131C7.19332 49.9509 6.28469 49.9359 5.55389 49.7122C5.33025 50.5619 4.76411 51.5005 4.95781 52.2462C5.15151 52.9911 6.0461 53.9156 7.08945 55.3913C4.45149 55.1527 3.72086 56.3159 4.00425 58.1639C4.45154 61.1451 6.98548 61.5476 9.31082 61.9649L10.1006 65.9147L14.8112 64.6177C16.3018 65.9446 17.3751 67.8375 18.776 68.0902C20.1768 68.3438 22.2045 67.1657 23.9628 66.5996C26.0346 68.4477 26.0346 68.4028 29.1496 68.7612H29.1487C29.9338 68.8828 30.6618 69.2412 31.2354 69.7896C34.4552 72.9047 36.1098 73.1883 39.4784 70.6392C40.5293 69.6427 42.108 69.4489 43.3683 70.1629C44.3789 70.7347 45.5748 70.8797 46.693 70.5653C48.8097 69.3731 51.5375 70.8339 53.3706 68.8211C53.5343 68.6423 54.0864 68.6723 54.399 68.8211C56.4557 69.477 58.5126 70.163 61.0916 71.0126C60.067 72.0073 58.6034 72.4069 57.2156 72.071C53.9807 70.6551 51.1192 73.0844 47.9742 72.6521C45.8135 72.5136 43.6454 72.5482 41.4904 72.7559V72.2487L37.0934 74.8127C38.4886 74.6658 39.8631 74.3663 41.1929 73.919C42.5198 73.6654 43.9954 73.6654 44.6655 75.5435C43.0111 75.9758 41.5503 76.3333 40.1046 76.7506C39.0912 77.0491 38.0329 77.8239 37.1234 77.6751C36.2139 77.5264 35.2154 76.5129 34.2468 75.842C32.3987 76.7956 30.6693 77.3327 28.6875 75.7082L28.6866 75.7073C27.5552 75.0728 26.2106 74.9371 24.9754 75.3348C24.006 75.7288 22.9289 75.77 21.9324 75.4509C20.9349 75.1318 20.0815 74.4739 19.5201 73.5906C13.1851 75.856 11.978 75.6034 9.28016 71.5189L5.03192 70.8479C6.13518 72.4275 7.13362 73.8291 8.17701 75.3199C9.99237 78.1533 12.6368 80.3598 15.749 81.64C18.6385 82.7713 21.6349 83.6107 24.692 84.1441C29.76 84.8449 34.902 85.0237 39.9999 85.441C41.3484 85.5767 42.6266 84.8141 43.145 83.563C43.5998 82.8471 44.0976 82.1603 44.6357 81.5062L45.2617 81.7598L45.5752 84.9049C48.3478 86.3955 49.3613 83.8465 51.1345 82.5346L52.4165 85.0538C53.4814 85.5338 54.6979 85.5478 55.7741 85.0921C56.8493 84.6364 57.6858 83.7531 58.0807 82.6535C58.2295 82.34 58.7966 82.2062 59.4666 81.8338L59.9588 85.2325C64.6693 85.2325 69.3191 85.2325 73.9398 85.3813C81.5118 85.6798 86.1625 81.5053 89.5014 75.3651C90.5569 74.0579 91.0454 72.3839 90.8583 70.7144C90.0095 71.5997 89.0289 72.3492 87.9518 72.935C86.696 73.2878 85.3804 73.3692 84.0909 73.1736C82.9726 73.0398 81.7655 72.5476 82.138 70.8033C83.6286 70.2812 85.6556 72.294 86.9525 69.9686C84.4933 67.8071 81.8546 69.8938 79.3805 69.5064C77.8898 69.2827 76.1755 70.8922 74.5659 71.6829L74.6998 72.3838L80.364 72.7712C79.9466 73.546 79.6781 74.4556 79.4245 74.4556C76.9803 74.4556 74.5352 74.2918 72.4633 74.187C70.9726 75.1265 69.6318 76.6312 68.3198 76.6312C66.7402 76.6312 65.1747 75.2893 63.6839 74.5744C58.6459 78.3905 56.0079 77.9732 55.1733 73.2774C56.9915 73.0687 57.916 76.4225 60.1515 74.5145L60.1524 74.5154C61.0489 73.9062 61.7357 73.0351 62.1194 72.0217C62.504 71.0082 62.5667 69.9012 62.299 68.8514C63.2591 69.4747 64.3829 69.7984 65.5275 69.7797C66.6719 69.761 67.7845 69.4017 68.7231 68.7466C69.2453 68.4631 70.0051 67.9419 70.3176 68.1206C73.2989 69.79 75.6094 68.7915 78.456 67.226C80.5436 66.0788 83.6588 66.8096 86.67 66.6599L86.6695 66.6597ZM99.756 43.6458C98.8464 41.1717 96.4473 40.6646 94.5692 39.6062C93.9385 39.1796 93.2049 38.9297 92.445 38.8829C91.6843 38.8352 90.9254 38.9924 90.2469 39.3386C86.1614 41.0258 81.7728 41.853 77.3532 41.7679C74.998 41.7679 72.6575 41.9467 70.3183 42.0515L69.7821 45.6888L69.0513 45.9125L67.0394 42.2751L66.1149 46.4036H65.37L63.9692 42.6026C62.9108 42.6026 61.9723 42.5277 60.9879 42.6026H60.987C48.2672 43.2866 35.513 42.9675 22.843 41.649C21.795 41.4469 20.7301 41.9082 20.1603 42.8112C19.6531 43.4607 19.1 44.0736 18.5059 44.6444C17.5963 42.7064 15.8679 43.3175 14.1537 43.1537L15.212 40.0237C13.1852 39.5165 11.1873 38.533 9.35421 38.7118V38.7127C7.15799 39.2349 5.06286 40.1163 3.1529 41.3207C2.6869 41.4835 2.36219 41.9074 2.32664 42.3996C2.29108 42.8919 2.55122 43.3588 2.98915 43.5862C3.64792 43.7668 4.34317 43.7668 5.00101 43.5862C6.58337 43.1183 8.20503 42.7992 9.84549 42.6326C12.6032 42.6326 13.3631 44.3769 11.7984 46.6123C10.9936 47.7605 9.83051 48.729 10.8888 50.7707C11.9518 50.3487 12.9831 49.8499 13.975 49.2801C15.272 48.4454 16.3892 47.3571 17.6713 46.4775C21.5762 43.7797 23.2165 44.2271 25.497 48.4604C25.6018 48.6391 25.8694 48.7439 26.4955 49.1912L30.4452 45.4949C32.517 43.542 34.3212 43.9004 35.4085 46.4934C35.5872 46.9257 35.6022 47.4329 35.7809 47.8643C36.7345 50.0998 38.2251 50.2785 39.7007 48.3565C43.7403 43.1397 44.2767 43.1098 48.8375 47.7604C51.8188 50.8604 52.5049 50.7416 54.8003 47.0296C54.9191 46.8209 55.0239 46.6122 55.1577 46.4185C56.9759 43.7805 58.4367 43.4373 61.1204 45.1814C63.0284 46.4035 64.8316 47.7753 66.7847 48.9077H66.7856C67.9581 49.4953 69.1746 49.9941 70.422 50.3983C70.8543 49.8622 71.0929 49.6975 71.1379 49.4888C71.3765 48.3266 71.5702 47.1485 71.7938 45.9863C72.2411 43.6909 73.2845 42.9011 75.5649 43.646C76.9825 44.2467 78.3394 44.9804 79.6186 45.8375C81.1092 46.7171 82.5998 47.7605 84.6118 46.791L84.7756 45.3004C85.133 41.9318 86.2662 41.067 89.4114 42.0365H89.4123C90.9526 42.6148 92.447 43.3072 93.8834 44.1082C95.9701 45.2115 97.9529 45.7926 99.7562 43.6459L99.756 43.6458ZM13.572 72.3826L14.0193 72.9188H14.0184C15.2705 72.6362 16.4963 72.2526 17.6857 71.7716C19.1764 71.0557 20.4435 70.862 21.4867 72.2488C22.1941 73.2575 23.5033 73.6459 24.6466 73.1874C26.4957 72.654 28.4898 73.0723 29.9674 74.3056C30.6944 74.6378 31.4795 74.8249 32.2777 74.8568L32.5014 74.2158L29.6248 70.817L29.4012 71.3242L22.6937 69.7596C19.1014 71.3691 18.4455 71.2503 14.3467 67.554L9.27873 68.2839C11.8278 69.2234 14.2569 68.4776 15.5538 70.9068L13.572 72.3826ZM86.9231 48.8765C88.7114 49.0702 89.9933 48.7866 90.2917 47.237C90.462 46.3546 90.2693 45.4404 89.7546 44.703C89.4075 44.2847 88.8862 44.0489 88.3426 44.0639C87.7989 44.0779 87.2917 44.3409 86.967 44.7779L86.9231 48.8765ZM68.3504 74.947L71.3316 70.1924C69.8409 70.6996 68.9913 70.9672 68.1566 71.3106C67.3219 71.6531 66.3234 72.1154 65.0565 72.6675L68.3504 74.947ZM33.1289 48.9675L33.5912 48.8777L33.2038 46.9846L32.7265 47.0745L33.1289 48.9675ZM63.4467 50.592C63.3419 50.7707 63.1482 50.9344 63.1332 51.1141H63.1342C63.1623 51.334 63.2334 51.5464 63.3429 51.7401C63.5375 51.5436 63.6984 51.3172 63.8201 51.0692C63.88 50.9644 63.5964 50.7557 63.4626 50.592H63.4467Z" fill="#223A41"/>
<path d="M43.7274 6.00977C44.0259 8.7675 41.5658 13.3731 39.2554 13.9694C38.3655 14.1462 37.4419 13.9582 36.6915 13.4472C36.1656 12.854 35.9447 12.0502 36.0954 11.2716C36.6176 9.03517 41.0436 6.08386 43.7273 6.00984L43.7274 6.00977Z" fill="#223A41"/>
<path d="M47.7376 11.407C50.048 12.6291 51.7025 15.4916 51.3 17.3697V17.3688C51.1662 18.7237 50.0779 19.7859 48.721 19.8879C47.2303 19.8879 46.7381 18.6957 46.6792 17.4737C46.406 15.3907 46.7746 13.2741 47.7375 11.4072L47.7376 11.407Z" fill="#223A41"/>
<path d="M59.3918 8.8415C59.5855 8.54299 59.9579 7.23199 60.7776 6.82964C62.0297 6.20361 62.9692 7.35179 63.5502 8.39516V8.39423C64.3493 9.67622 64.9716 11.0602 65.3983 12.5088C65.7708 14.1033 64.6974 14.923 63.088 14.5805C60.8075 14.1033 59.3768 12.2253 59.3917 8.84157L59.3918 8.8415ZM62.0146 9.31874C61.0901 10.9432 61.5075 11.8527 63.8028 12.6425L62.0146 9.31874Z" fill="#223A41"/>
<path d="M56.0692 63.6799L51.121 58.5379C52.6117 57.0472 53.9236 57.2708 56.5915 59.8049C57.9923 61.0859 57.9174 61.6371 56.0693 63.6799L56.0692 63.6799Z" fill="#223A41"/>
<path d="M23.8278 61.2341C20.6528 61.6514 17.8651 60.3545 16.9864 58.2528C16.4503 56.9708 16.9864 55.9275 18.8795 54.7803C19.833 57.8214 20.0857 58.1489 23.8277 61.2341H23.8278Z" fill="#223A41"/>
<path d="M77.4277 57.2407C78.1876 56.6446 78.7397 55.8839 79.157 55.9438C80.4165 56.1403 81.6414 56.5174 82.7934 57.062C83.8967 57.5841 84.8352 58.5527 84.2841 59.8935C83.7329 61.2354 82.7195 61.7575 80.8264 61.6078L81.8249 58.7463L77.4277 57.2407Z" fill="#223A41"/>
<path d="M53.3863 72.445C53.2965 75.9475 51.672 77.7216 49.5103 77.6318C47.9008 77.6318 46.9014 76.1411 46.9313 73.5471C49.2866 76.2459 51.1946 74.8741 53.3861 72.4448L53.3863 72.445Z" fill="#223A41"/>
</svg>
