<svg width="58" height="115" viewBox="0 0 58 115" fill="none" xmlns="http://www.w3.org/2000/svg">
<path d="M30.6522 11.7392C31.2899 11.9518 31.8136 11.7392 31.8793 11.118C31.9451 10.4967 31.8793 9.48217 31.8793 8.64839C31.8793 7.00132 31.9225 5.36667 32.0097 3.74106C31.9933 2.79634 32.5581 1.93892 33.433 1.5816C34.583 1.0343 35.7629 0.547558 36.9655 0.126539C37.3998 -0.0675354 37.8999 -0.0367292 38.3076 0.207659C38.7142 0.452051 38.9771 0.879223 39.0099 1.35261C39.2554 2.69368 39.3375 4.06757 39.4515 5.44161V7.40391V7.40494C41.1396 7.87112 42.9172 7.905 44.6206 7.50249L45.7984 10.0706C46.9403 10.2719 48.0924 10.4085 49.2497 10.4804C50.4378 10.4413 51.6228 10.3376 52.7985 10.1692C53.927 12.8842 52.1444 15.3055 52.4391 17.8409C52.5541 17.9559 52.6517 18.1685 52.7985 18.2003C54.7608 18.5597 55.4478 18.3472 54.958 21.3241C54.4671 24.3008 53.813 27.0652 53.2246 29.9279C52.7174 32.3482 52.1783 34.8353 51.7038 37.1733H51.7028C51.6084 37.8294 51.5488 38.4907 51.5231 39.153C51.8353 39.0442 52.1361 38.9076 52.4227 38.7443C53.3889 37.929 54.8234 38.007 55.6941 38.924C57.984 40.7066 57.9511 40.6574 56.6758 43.3077H56.6748C55.8215 45.0328 55.0729 46.8071 54.4342 48.6238C53.3878 51.7475 52.4555 54.9052 51.4903 58.0452C51.2633 58.5597 51.1524 59.1183 51.1627 59.681C51.6535 62.7564 50.4264 65.6017 50.0177 68.5459C49.5105 72.0629 48.6438 75.547 47.9076 79.0301C46.9916 83.3922 46.0757 87.7533 45.1598 92.1152C44.8004 93.751 44.4399 95.517 44.097 97.2186C43.5435 100.738 42.7456 104.213 41.7095 107.622C41.4128 108.49 41.1879 109.383 41.038 110.288C40.8911 111.09 40.8747 111.924 40.809 112.66V112.659C40.4753 112.938 40.045 113.072 39.6127 113.032C39.1794 112.992 38.7809 112.782 38.5027 112.447C34.6426 109.175 27.0532 108.391 22.3091 110.256H22.3102C20.1045 110.908 18.0642 112.023 16.3237 113.527C16.1214 113.711 15.8894 113.861 15.6368 113.969C15.339 114.098 14.9991 114.089 14.7085 113.944C14.4179 113.799 14.2064 113.532 14.1314 113.216C13.9681 112.218 13.9189 111.221 13.772 110.223C12.6106 102.813 11.286 95.5016 10.2879 87.9942C9.45407 81.7457 8.96324 75.4491 8.35739 69.168C8.07911 66.2569 8.07911 63.2964 7.54001 60.4335V60.4324C7.17138 57.697 6.07572 55.1103 4.36712 52.9416C2.70363 50.8252 1.24129 48.5579 0 46.1694C0.453878 45.8398 0.941616 45.5605 1.45609 45.3356C2.50246 45.0245 3.58268 44.7955 4.72755 44.5665H4.72652C5.61782 44.4176 6.46601 44.0777 7.21355 43.5694C7.4107 42.3772 7.4107 41.1625 7.21355 39.9704C7.03385 36.5028 6.90241 33.035 6.64056 29.5674V29.5685C6.3325 28.0795 7.17041 26.5917 8.60286 26.0843C8.7497 26.0843 8.86471 25.8389 9.11013 25.5771C8.88114 21.2591 8.60286 16.8097 8.43959 12.3122L10.0754 11.5759L11.3507 10.9382C11.7923 8.79521 10.5005 6.57111 11.7923 4.29751L11.7933 4.29649C12.3314 4.18251 12.8787 4.11679 13.4281 4.10036C15.1491 4.46386 16.9387 3.97611 18.2379 2.79214C20.4456 2.25201 22.6379 1.68005 24.862 1.15635C25.1424 1.11939 25.4258 1.20359 25.6414 1.3874C25.857 1.5712 25.9833 1.83817 25.9905 2.1216C26.0891 2.93898 25.9905 3.75739 26.0727 4.57474C25.9299 5.48865 26.049 6.42411 26.4156 7.27341C27.119 7.78068 27.7896 7.40382 28.4765 7.27341C30.3248 6.74971 30.7335 7.06085 30.6678 9.0396L30.6688 9.04063C30.4398 9.92476 30.4337 10.852 30.6524 11.7393L30.6522 11.7392ZM18.712 36.9772C18.4994 34.2457 18.2376 31.5144 18.0579 28.7995C17.9275 26.7057 18.0579 24.579 17.796 22.4852C17.2641 17.6733 17.1553 12.8246 17.4685 7.99325C17.45 7.33197 17.3627 6.67376 17.2066 6.03095H14.6385C14.2092 6.07819 13.7831 6.1552 13.3631 6.25994C12.9924 7.24264 13.0581 8.33725 13.5428 9.26958C15.3583 10.1527 15.3583 10.1527 15.538 11.8377C15.538 12.4754 15.538 13.1131 15.6366 13.7518C15.8327 15.8455 16.0288 17.9393 16.2578 20.0166C16.4046 21.2919 16.6172 22.5519 16.7651 23.8272C17.2066 27.9162 17.6153 32.0049 18.0733 36.095C18.0733 36.4061 18.4491 36.668 18.6463 36.9617L18.483 38.2535H18.6134L18.712 36.9772ZM48.0724 67.4995C46.146 65.9613 43.9166 64.846 41.5292 64.228C39.076 63.5575 36.5406 63.1488 34.0701 62.4783L34.0712 62.4773C28.4081 61.129 22.5181 61.0335 16.8148 62.2C15.1944 62.4701 13.5935 62.8469 12.0226 63.3285C10.2236 63.8851 9.87959 64.5063 10.0439 66.3876C10.5512 72.2108 10.8777 78.0495 11.6797 83.8401C12.7918 92.2633 14.2314 100.638 15.556 109.029H15.555C15.6751 109.709 15.8394 110.381 16.0458 111.04C17.3212 110.517 18.499 110.042 19.644 109.551V109.552C25.3902 107.011 31.957 107.095 37.6364 109.781C37.9784 109.896 38.3285 109.984 38.6838 110.043C38.8882 109.698 39.0627 109.338 39.2065 108.963C40.1389 105.691 41.1205 102.289 41.7253 98.8709C42.1833 96.2699 42.7717 93.6862 43.3611 91.0854C44.6694 84.6407 45.9786 78.1964 47.2869 71.7518C47.5487 70.3778 47.7777 69.0368 48.0724 67.4995L48.0724 67.4995ZM19.8739 4.72257C19.5494 7.69831 19.4077 10.6917 19.4488 13.6861C19.7209 19.8904 20.0372 26.0955 20.3976 32.2999C20.5937 35.7675 20.9213 39.2187 21.1338 42.6866C21.3464 46.1544 21.4932 49.8015 21.6904 53.3514V53.3503C21.7654 54.0003 21.8804 54.6442 22.0334 55.2808C22.7039 55.2808 23.244 55.2808 23.7667 55.134C24.2904 54.9871 24.7812 54.9214 25.4025 54.7582C24.2247 37.96 24.1271 21.2444 23.7667 4.55975L23.7677 4.55872C23.7174 4.26504 23.6291 3.97959 23.5059 3.70848C22.212 3.5945 20.9213 3.95493 19.874 4.72302L19.8739 4.72257ZM49.5287 21.0783C49.3469 21.4952 49.1888 21.9214 49.0543 22.3547C48.4494 25.0205 47.8436 27.7037 47.2552 30.3692C46.8137 32.4301 46.4861 34.5074 46.0117 36.552C44.7517 41.8844 43.3943 47.2005 42.1354 52.5329C41.6548 53.8288 41.547 55.2345 41.8242 56.5891C42.7812 57.0676 43.8492 57.276 44.9161 57.1939C45.8485 55.0519 51.1636 30.5831 52.7992 21.422C52.79 21.1314 52.7345 20.8449 52.6359 20.5717C52.2776 20.5348 51.9151 20.5348 51.5567 20.5717C50.9026 20.6364 50.2803 20.8336 49.5287 21.078V21.0783ZM34.8078 55.4281C35.6744 43.88 36.3285 32.5294 36.7382 21.0783H36.7372C36.7115 20.7292 36.6458 20.3832 36.5411 20.0484C34.4638 20.1305 34.088 20.376 33.8918 22.0107C33.5971 24.3663 33.3517 26.7219 33.1556 29.0928C32.943 31.9063 32.828 34.7517 32.6319 37.5652C32.4686 39.6589 32.2232 41.7362 32.0106 43.83C31.8145 45.6455 31.6348 47.4608 31.3894 49.2599L31.3884 49.261C31.0967 51.1165 31.0259 52.9998 31.1758 54.8717C31.4623 55.0432 31.7703 55.1747 32.0918 55.264C32.9759 55.3297 33.7933 55.3297 34.889 55.4273L34.8078 55.4281ZM10.2722 13.8992C10.4847 17.1707 10.6644 20.2453 10.8934 23.3369H10.8944C10.8862 23.7918 11.0567 24.2313 11.3678 24.563C13.1176 25.6587 13.1176 27.4412 13.3301 29.1428C13.7059 32.1361 14.0828 35.1129 14.4093 38.1063C14.7852 41.459 15.0799 44.8127 15.4557 48.1654C15.7011 50.3413 15.9794 52.5162 16.2895 54.7086C16.4199 55.6574 16.9272 56.0661 17.4673 55.8536C18.0075 55.641 18.0403 55.0033 17.991 54.4632C17.5495 50.0138 17.1244 45.5654 16.6335 41.1326C16.1427 36.6997 15.5707 32.2514 14.9977 27.8185C14.7688 25.7412 14.6537 23.631 14.4248 21.5537C14.1629 19.0133 13.8631 16.4779 13.5252 13.9477H13.5273C13.4 13.4292 13.2192 12.925 12.9872 12.4434C12.6175 12.5717 12.2571 12.7247 11.9079 12.9014C11.4828 13.1139 11.0413 13.4415 10.2721 13.8995L10.2722 13.8992ZM10.8123 27.4096C9.1765 27.6386 8.35915 28.342 8.42384 29.7981V31.4339C8.73498 35.8833 8.86539 40.3479 9.61808 44.7645C9.89635 46.4003 10.1418 48.0359 10.4201 49.6718C10.7641 51.7327 11.0742 53.81 11.4664 55.8709C11.6626 56.9173 12.2027 57.1791 13.2819 56.8854V56.8844C13.6495 56.7304 14.0007 56.5384 14.3293 56.3114C13.3476 47.4239 12.3608 38.554 11.3688 29.7007H11.3678C11.2497 28.9285 11.0864 28.1635 10.878 27.4108L10.8123 27.4096ZM42.9854 28.2927C41.3496 28.1459 40.6791 28.6521 40.5158 29.9285C40.5158 30.1082 40.5158 30.2879 40.4173 30.4687C39.7467 36.1933 39.0926 41.9181 38.3892 47.6099C38.341 48.418 38.1479 49.2107 37.8163 49.949C37.1324 51.6423 37.0009 53.5081 37.4404 55.2814C37.4794 55.5618 37.6345 55.8144 37.8676 55.9756C38.1007 56.1368 38.3903 56.1943 38.6675 56.1317C39.1409 56.0998 39.5188 55.723 39.5506 55.2486C39.8782 53.6128 40.1883 51.9771 40.5487 50.3412C41.1371 47.6754 42.1845 45.0909 41.8087 42.2773H41.8077C41.7892 42.0986 41.7892 41.9169 41.8077 41.7382C42.1352 38.2869 42.4782 34.8194 42.7893 31.3681C42.9855 30.4193 42.9855 29.4212 42.9855 28.2927L42.9854 28.2927ZM47.4995 57.0643V57.4566C47.5488 58.0131 47.977 58.4618 48.5304 58.5368C49.1034 58.5368 49.2996 58.1774 49.4628 57.7348C49.4628 57.5716 49.545 57.3754 49.6097 57.2111C51.1469 52.3038 52.5702 47.2824 54.517 42.4902C54.6649 42.1596 54.7799 41.8135 54.86 41.4603C54.8733 41.1399 54.7306 40.8318 54.478 40.6347C54.2254 40.4365 53.8927 40.3728 53.5846 40.4622C53.179 40.6542 52.8176 40.9263 52.5218 41.2641C51.1623 42.866 50.1734 44.7483 49.626 46.7763C48.8251 50.2111 48.2357 53.6132 47.4994 57.0644L47.4995 57.0643ZM30.2597 14.5366C30.1775 15.5182 30.0307 16.5974 29.9814 17.6766C29.851 20.6699 29.8828 23.6796 29.4741 26.6729C29.2123 28.6516 29.2452 30.6807 29.163 32.6759H29.164C29.1035 33.1267 29.1035 33.5826 29.164 34.0334C29.4916 35.4238 29.8674 36.7978 30.3418 38.6295C30.5051 36.5522 30.6201 34.8672 30.767 33.183C31.1161 29.0067 31.4755 24.8307 31.8462 20.6534C31.8462 20.0157 31.9283 19.2959 32.5496 19.0176C33.6288 18.4128 33.6124 17.3818 33.6781 16.4002V16.4012C33.981 15.3066 33.8588 14.138 33.3351 13.1297C32.2035 13.3834 31.149 13.905 30.2598 14.6505L30.2597 14.5366ZM39.567 9.62922C39.567 10.5616 39.4202 11.0853 39.4037 11.6244C39.3216 14.0775 39.2733 16.5317 39.1583 18.9686C39.0597 21.0623 38.88 23.1396 38.7989 25.2334C38.7989 26.3783 39.0443 26.5087 40.4347 26.329C40.4347 24.9715 40.4347 23.6141 40.5497 22.2894C40.7951 19.9339 41.1227 17.5948 41.4492 15.2565H41.4482C41.3856 13.705 41.8846 12.1833 42.855 10.9704C43.2637 10.5945 42.855 9.80897 42.2666 9.75969C41.6772 9.71142 40.6627 9.62928 39.5669 9.62928L39.567 9.62922ZM28.2645 9.44952L26.3504 9.87464C25.7775 12.6553 26.4973 15.2883 26.3504 17.9386C26.2036 20.5878 26.2683 23.0586 26.3504 25.6103C26.4326 28.162 26.105 30.8441 26.4654 33.5438C26.7766 33.3313 27.022 33.2327 27.0384 33.1351C27.6761 25.3157 28.1495 17.4973 28.2645 9.44965L28.2645 9.44952ZM35.9525 11.2486V16.2534C35.9473 16.6159 36.0254 16.9743 36.1815 17.3008C36.1815 17.4312 36.7052 17.4641 36.8849 17.3008C37.0943 17.1335 37.2196 16.8819 37.2278 16.6139V3.74119C37.1231 3.2565 36.928 2.79647 36.6559 2.38368C35.8857 2.35698 35.1444 2.67121 34.6279 3.24212C34.1114 3.81203 33.8711 4.58115 33.9727 5.34409V9.44939C34.0046 9.71124 34.0651 9.96899 34.1524 10.2185L35.9525 11.2486ZM45.7661 12.8844C44.3264 12.9829 43.7216 13.4892 43.5902 14.5202C43.2462 17.5955 42.8868 20.6701 42.5757 23.7454H42.5767C42.5675 24.2938 42.6167 24.8421 42.7235 25.3812C44.5226 25.3812 44.7023 25.2344 44.9641 23.9744C45.0914 23.3491 45.1736 22.7145 45.2095 22.0768C45.3728 19.6237 45.5371 17.1695 45.6839 14.7163C45.7168 14.2255 45.7332 13.6864 45.7661 12.9009V12.8844ZM26.9727 36.3561C26.8772 36.8973 26.8177 37.4436 26.792 37.9919C27.0097 42.9968 27.2387 48.0079 27.479 53.0241C27.5098 53.478 27.6094 53.9246 27.7737 54.3487C27.9534 54.8396 28.2809 55.0686 28.7553 54.5942C28.6732 53.6782 28.5428 52.7787 28.5099 51.8626C28.3631 47.9369 28.2481 44.0277 28.0848 40.1022C28.0335 39.1914 27.9298 38.2846 27.7737 37.3872C27.7408 37.1254 27.479 36.9611 26.9727 36.3562V36.3561ZM7.83524 54.3485C7.95846 51.536 7.58674 48.7235 6.73958 46.0393C5.41083 46.1595 4.11802 46.5322 2.92792 47.135C4.27412 49.7124 5.9273 52.1183 7.85154 54.2994L7.83524 54.3485ZM50.7704 12.704C49.8894 12.2666 48.8307 12.4022 48.0883 13.047C47.925 14.8461 47.7443 16.6452 47.5811 18.4451C47.5811 18.4451 47.6796 18.592 47.8265 18.821L49.8216 18.6413C50.3494 16.7015 50.6667 14.7116 50.7704 12.704L50.7704 12.704ZM36.295 58.2732C35.9192 59.2713 35.9192 59.2713 36.1646 59.909C36.523 59.4356 36.5743 58.7969 36.295 58.2732ZM45.667 26.5075H45.4544V27.6854H45.667V26.5075ZM27.9199 57.7317H27.8048V58.697H27.9199V57.7317ZM22.8656 58.697C22.9262 58.6343 22.9754 58.5624 23.0134 58.4844C23.0258 58.3971 23.0258 58.3088 23.0134 58.2226C23.0134 58.2226 22.8337 58.3694 22.8009 58.4515C22.768 58.5337 22.8502 58.697 22.8656 58.697ZM40.858 60.4303H40.9565V60.2835L40.858 60.4303Z" fill="#223A41"/>
</svg>
