<?xml version="1.0" encoding="UTF-8"?>
<svg width="700pt" height="700pt" version="1.1" viewBox="0 0 700 700" xmlns="http://www.w3.org/2000/svg">
 <path d="m166.08 78.578c-4.668 0-9.1445 1.8672-12.43 5.1836-3.2852 3.3164-5.1094 7.8086-5.0664 12.477 0.042969 4.6719 1.9492 9.1289 5.293 12.383l171.38 171.38-171.38 171.38c-3.3828 3.2578-5.3164 7.7422-5.3594 12.441-0.046875 4.6992 1.8008 9.2188 5.125 12.543 3.3203 3.3203 7.8398 5.168 12.539 5.125 4.6992-0.046875 9.1836-1.9805 12.441-5.3633l171.38-171.38 171.38 171.38c3.2578 3.3828 7.7422 5.3164 12.441 5.3633 4.6992 0.042969 9.2188-1.8047 12.543-5.125 3.3203-3.3242 5.168-7.8438 5.125-12.543-0.046875-4.6992-1.9766-9.1836-5.3633-12.441l-171.38-171.38 171.38-171.38c3.3906-3.2969 5.3047-7.8242 5.3008-12.555 0-4.7305-1.918-9.2578-5.3086-12.551-3.3945-3.2969-7.9805-5.0781-12.707-4.9375-4.5469 0.13672-8.8633 2.0352-12.031 5.2969l-171.38 171.38-171.38-171.38h0.003906c-3.2969-3.3867-7.8203-5.2969-12.547-5.2969z"/>
</svg>
