<svg width="61" height="93" viewBox="0 0 61 93" fill="none" xmlns="http://www.w3.org/2000/svg">
<path d="M10.9159 24.5078V19.8666C10.9159 14.802 10.671 9.73751 10.712 4.65792C10.712 3.35763 9.95666 1.19556 12.7549 1.14988C15.5531 1.1042 14.7977 3.31195 15.1247 4.61224C16.2481 9.97952 17.1676 15.3762 18.1679 20.7585C18.3166 21.608 18.7142 22.4233 19.3323 23.1474C21.3751 20.9854 20.5788 18.4911 20.8647 16.1326C21.1918 13.4863 21.4777 10.8413 21.8458 8.21043C22.2138 5.57952 22.6011 3.23604 22.9692 0.75699C26.4418 0.590896 26.4215 2.35911 26.7278 3.64424L26.7265 3.64519C27.6344 6.95472 28.2757 10.3022 28.6463 13.6678C29.0348 18.717 29.0348 23.7816 29.0143 28.7863C29.1054 29.8854 28.7694 30.9807 28.0448 31.943C27.3216 32.9045 26.2392 33.6932 24.9286 34.2143C20.843 35.4994 20.843 37.5551 21.2931 40.2621V40.2612C21.9189 40.5203 22.5255 40.8031 23.1115 41.1078C25.4404 42.4384 25.7879 43.1787 23.7245 44.5551C21.6611 45.9313 21.6817 47.5031 21.6817 49.408C22.5665 60.2611 22.4498 71.1465 21.3341 81.9882C21.0866 83.5391 20.5865 85.0623 19.8427 86.524C19.735 87.177 19.2644 87.7674 18.5424 88.1527C17.8204 88.5371 16.915 88.6814 16.043 88.5494C14.6336 88.277 12.6727 87.5823 12.2844 86.7357C11.1469 84.3544 10.4262 81.8743 10.1402 79.3573C9.24125 70.4529 8.60774 61.5178 7.8524 52.5987C7.76135 51.0336 7.54335 49.4734 7.19838 47.9271C6.98807 47.1232 6.4546 46.3857 5.66591 45.8106C3.23451 44.0718 3.09216 43.6485 5.01188 41.6829L5.01316 41.6839C6.37893 40.1549 7.09448 38.3591 7.06884 36.5273C7.04319 34.6945 6.27758 32.9101 4.86954 31.403C3.27039 29.8977 2.14573 28.1467 1.58136 26.2777C-0.011385 19.6074 -0.403795 12.8107 0.416937 6.06454C0.600318 4.74906 0.0899312 2.60218 2.62267 2.5565C5.15541 2.51082 4.88992 4.61227 5.19642 5.97318C6.3198 11.0985 7.23928 16.2388 8.40367 21.3641C8.7666 22.4916 9.21672 23.6021 9.75148 24.6906L10.9159 24.5078ZM13.6128 64.664C12.7856 65.9349 12.2214 67.2903 11.9379 68.6854C12.2855 73.5079 12.8779 78.3161 13.5512 83.1081C13.5012 83.8484 13.7692 84.582 14.3155 85.2037C14.8618 85.8254 15.6595 86.3037 16.5943 86.5704C17.4138 85.0015 18.0165 83.3758 18.3922 81.7166C19.5143 69.8964 19.4118 58.0286 18.0857 46.2182H9.75138C11.2018 50.2851 9.17942 54.3826 12.9791 57.6474C12.4893 58.2368 11.5698 59.2951 11.5903 59.3103C14.4295 60.7311 11.3454 62.0163 11.3659 63.3925L13.6128 64.664ZM17.4932 40.1723C17.6188 38.649 17.8856 37.1332 18.2895 35.6365C18.596 34.8202 19.454 33.6861 20.3324 33.4896C24.6836 32.6126 25.8274 30.1791 25.8891 27.4418C26.0122 22.9059 25.8891 18.28 25.6236 13.6995C25.4454 13.0759 25.1286 12.478 24.6836 11.9313C23.9924 15.277 23.5564 18.6483 23.3769 22.0297C23.4166 22.994 23.1499 23.9517 22.5997 24.8268C21.9047 25.6582 20.5569 26.6709 19.4335 26.6709C18.3102 26.6709 16.9418 25.6734 16.3288 24.842C15.5671 23.5484 14.9849 22.2016 14.5925 20.8206C14.3283 22.8071 13.8436 24.7737 13.1421 26.7012C12.1008 28.8633 9.60768 29.075 8.13693 27.0942H8.13822C6.88916 25.1618 5.92993 23.1344 5.2785 21.0473C4.72707 19.5354 4.48212 18.0235 4.11408 16.5115C3.79733 20.0176 4.03071 23.5378 4.80785 27.004C4.92455 28.087 5.57987 29.0997 6.64682 29.8456C9.46551 31.1914 9.48603 33.2321 9.8746 35.2279C10.1811 36.8452 10.426 38.4787 10.712 40.2023L17.4932 40.1723ZM6.85058 44.2545C11.6916 43.9365 16.1659 45.0707 21.0276 43.2266C14.4502 41.4575 9.38467 41.6843 6.85058 44.2089V44.2545Z" fill="#223A41"/>
<path d="M55.1208 41.5475C56.7956 43.6336 58.1434 45.3269 56.2647 47.2926C55.9992 47.5802 56.2647 48.2151 56.4891 48.6688C57.2444 50.921 58.2255 53.2046 58.7359 55.4264H58.7371C58.6987 56.3489 58.2947 57.243 57.5727 57.9965C56.2852 59.7657 55.0195 61.3831 57.5727 63.212C58.1421 63.901 58.1883 64.7599 57.6945 65.4803C55.6517 67.4004 56.0402 69.5776 55.9582 71.7245C55.7543 76.6685 55.7748 81.6266 55.3452 86.5553H55.3465C55.1131 88.3292 54.3526 90.0432 53.1189 91.5742C52.6804 92.4084 51.6108 92.9694 50.4016 92.9988C49.1923 93.0282 48.0753 92.5214 47.5636 91.7099C46.203 90.364 45.2476 88.817 44.7642 87.175C43.9883 83.985 43.7229 80.7192 43.3548 77.4845C43.0894 75.2019 43.0894 72.9487 42.8444 70.6206C42.6816 68.897 42.4353 67.3851 39.9231 66.4322C37.8803 65.6159 37.8803 64.0433 39.4333 62.6984C40.0257 62.1394 40.7208 61.6402 41.4761 61.0963V61.0954C41.0734 60.0333 40.8144 58.9447 40.699 57.8456C41.1478 42.0315 38.2676 26.2178 40.4746 10.4051C40.7606 8.36455 41.2094 6.33825 41.7006 4.35729C41.9737 3.21361 42.756 2.17053 43.9217 1.39229C45.0861 0.614972 46.5698 0.147053 48.1356 0.0635194C51.7839 -0.235459 55.4477 0.528594 58.3485 2.19522C58.0958 2.83113 57.7816 3.4528 57.4085 4.05547C56.8494 4.7322 56.2364 5.38327 55.5708 6.00494C57.9817 7.51689 59.3091 9.11888 56.5313 11.0542L60.6169 14.5763L57.6136 17.101C58.124 19.1416 62.0659 21.3645 57.0416 23.239C58.0432 25.2644 59.9424 27.2452 56.653 28.7722C57.4699 30.9495 60.1257 32.8999 56.898 34.8201C56.7146 34.9264 56.898 35.531 57.1634 35.8176C58.8998 38.0565 58.4715 39.9615 55.1206 41.5484L55.1208 41.5475ZM54.3039 2.64752C48.1753 0.908752 45.4593 1.89201 44.091 6.41165V6.4126C43.8384 7.11115 43.6678 7.82393 43.5793 8.5443C43.2113 13.3668 42.5586 18.1901 42.6188 23.0126C42.7419 34.2453 43.1703 45.4781 43.6204 56.696V56.695C43.8781 58.5705 44.3154 60.4297 44.9284 62.2586L52.0366 61.6996L55.2849 55.426C54.427 52.5985 53.528 49.757 52.7317 46.8991C52.6086 46.491 53.0382 45.9918 53.1805 45.5381C53.3242 45.0844 53.8551 44.2226 53.5281 43.9056C51.1787 41.4863 52.4457 39.6575 55.2439 38.0847C54.0384 35.8771 51.6892 33.7758 55.5914 31.9163C53.5486 29.8606 52.2419 27.9406 55.5914 26.0203C52.6086 23.7377 53.3036 21.848 56.5314 20.336L54.0398 16.9193L56.3276 14.2286C52.8329 11.4459 52.8329 11.4459 54.6925 8.42206C51.9341 6.16982 51.9341 6.16982 54.3245 2.64659L54.3039 2.64752ZM49.8719 90.6669C53.3242 87.1589 54.4477 75.2012 52.3226 67.7781H45.6221C45.5375 68.9531 45.6542 70.1319 45.9696 71.2852C46.6044 72.1726 47.4175 72.9832 48.3806 73.6893L46.5211 75.3369L50.5043 77.499C46.4186 77.8018 45.9082 79.4039 46.4186 81.4303C46.929 83.4557 47.1535 85.4821 47.8075 87.4781L47.8088 87.4772C48.341 88.5924 49.0322 89.6611 49.8722 90.6672L49.8719 90.6669ZM44.1524 65.5702C51.1595 65.8578 51.1595 65.8578 52.9559 64.361C49.0138 63.5752 47.829 63.7109 44.1511 65.5702H44.1524Z" fill="#223A41"/>
</svg>
