<svg width="86" height="90" viewBox="0 0 86 90" fill="none" xmlns="http://www.w3.org/2000/svg">
<path d="M50.0854 37.3679C50.7357 39.2675 52.2949 40.6994 54.2223 41.1702C55.1277 41.4467 55.9648 41.9145 56.6786 42.5424C58.4351 44.0509 58.3902 44.7896 56.6786 46.6001C56.5095 46.7668 56.3507 46.943 56.2022 47.1276C56.1143 47.3066 56.0443 47.4931 55.9938 47.6863C56.2891 49.0424 56.9486 50.2905 57.8988 51.2915C62.0505 56.4659 66.3071 61.5492 70.4739 66.7076C70.9737 67.4595 71.6744 68.0505 72.4947 68.4112C73.3141 68.7721 74.2194 68.8876 75.1022 68.7446C77.7369 68.5154 80.3687 69.2247 82.5425 70.7503C84.2307 71.7125 85.4322 73.3584 85.846 75.276C86.0515 75.9796 86.0515 76.7296 85.845 77.4332C85.6395 78.1378 85.2368 78.7656 84.6856 79.2429C82.8133 81.1833 80.1562 82.1312 77.4973 81.8073C76.9723 81.7723 76.4453 81.7723 75.9203 81.8073V84.8244C75.7726 86.3462 75.0196 87.742 73.834 88.6899C72.6494 89.6379 71.135 90.0555 69.6402 89.8471C67.554 89.4835 65.7116 88.2552 64.5568 86.457C63.4021 84.6596 63.0377 82.455 63.5534 80.3744C63.7767 79.56 64.1187 78.7901 64.4466 77.9159V77.915C64.0785 77.3014 63.6656 76.7161 63.2115 76.1659C57.8938 70.5845 52.561 65.0132 47.2131 59.4526V59.4516C46.887 59.1761 46.5386 58.9289 46.1714 58.713L43.9693 59.4971C41.5879 60.357 40.3229 59.8143 39.5045 57.5056C39.2065 56.7215 39.028 55.8767 38.716 55.0917V55.0926C38.4077 53.9648 37.6808 53.0017 36.6877 52.4051C35.6946 51.8094 34.5118 51.6257 33.3879 51.8946C30.187 52.352 26.9367 52.3217 23.7445 51.8037C18.6528 51.1522 13.8806 48.9363 10.0677 45.4533C7.76849 43.5091 5.74111 41.2554 4.04084 38.7562C1.53887 34.8744 0.161727 30.3591 0.0674941 25.7226C-0.417377 19.1021 1.72488 12.5585 6.0207 7.54599C10.1782 2.71922 16.2032 -0.0338122 22.5245 0.00424928C32.0932 -0.161473 39.2066 4.52993 44.4151 12.3737C46.2154 15.0737 47.5999 18.0604 49.192 20.9119C51.9004 25.769 51.7818 30.8828 50.4869 36.1016C50.3384 36.5088 50.2048 36.9605 50.0852 37.3677L50.0854 37.3679ZM40.8587 10.9552C40.1636 9.94094 39.3928 8.98353 38.552 8.08868C34.1357 3.8784 28.2425 1.6301 22.1829 1.84417C15.8448 1.85932 9.91053 4.99964 6.27417 10.2611C3.52562 14.2716 2.07002 19.0453 2.10638 23.9281C1.85319 34.0495 6.57122 41.3054 14.6667 46.5545C20.121 50.0043 26.6532 51.2535 32.9716 50.0547C35.2055 49.5755 37.5223 50.3331 39.0583 52.0453C39.9739 52.8351 40.6335 53.8862 40.9483 55.0623C41.0903 55.6523 41.2846 56.2271 41.5285 56.7821C41.7013 57.2423 42.0853 57.5889 42.5562 57.7092C43.028 57.8294 43.5278 57.7082 43.895 57.3853C44.9544 56.6002 45.6991 55.4544 45.9933 54.1571C46.1793 53.7215 46.4193 53.3105 46.7071 52.9355L50.1153 52.3929C50.1331 50.8805 51.143 49.5661 52.5855 49.1797C53.0255 48.995 53.3525 48.6077 53.4637 48.1389C53.4637 46.4192 55.0407 45.5442 55.6517 44.2317C55.1014 43.3472 54.1027 42.8557 53.0768 42.9646C52.4667 42.9561 51.8707 42.7847 51.3475 42.4665C50.8252 42.1483 50.3945 41.6956 50.1002 41.1549C49.734 40.5479 49.3267 39.9683 48.8801 39.42C48.057 38.4948 47.8421 37.169 48.3298 36.026C48.8025 34.793 49.1716 33.5212 49.4304 32.2247C49.9676 28.5883 49.2977 24.8742 47.5254 21.6647C47.1414 21.0075 46.6977 20.3863 46.2016 19.8096C44.7133 19.8096 43.7912 21.4384 42.4215 20.4583C42.6746 18.9497 45.07 18.9497 44.7281 17.1399C43.4781 16.1749 42.1233 18.3464 40.9182 16.5973V16.5963C41.5768 16.1171 42.1934 15.5821 42.7633 14.9978C43.0109 14.618 43.0604 14.1398 42.8978 13.7155C42.626 13.3481 42.2046 13.1265 41.7515 13.1123C41.0517 13.1123 40.3678 13.4741 39.6681 13.5498C39.4299 13.5498 39.1468 13.2184 38.6712 12.9163L40.8587 10.9552ZM59.3121 69.2425C61.0686 71.0825 62.7942 72.9236 64.5804 74.7181C66.7086 76.8601 66.7824 77.1765 65.5473 80.0278C64.927 81.4246 64.8933 83.0174 65.4548 84.4407C66.0163 85.8631 67.1244 86.9928 68.5239 87.5705C69.1788 87.882 69.9047 88.0089 70.626 87.9379C71.3463 87.8659 72.0339 87.5979 72.6169 87.1633C73.2027 86.7059 73.6334 86.0761 73.8492 85.3592C74.065 84.6433 74.0556 83.8763 73.8221 83.166C73.6025 82.3469 73.3391 81.541 73.0336 80.7521C72.7953 80.0731 72.4683 79.4093 72.2899 78.7161C72.2151 78.414 72.2899 77.8562 72.5132 77.736L72.5122 77.735C72.8878 77.4916 73.3475 77.4206 73.7772 77.539C74.8189 78.1119 75.727 78.9415 76.7537 79.4851C77.9795 79.9642 79.3286 80.0182 80.5879 79.6385C81.8482 79.2597 82.9488 78.468 83.7186 77.3884C84.4772 75.8799 83.3019 73.3912 81.0401 72.0181H81.0392C80.2161 71.5323 79.3361 71.1526 78.4205 70.8865C77.0378 70.4518 75.5608 70.4253 74.164 70.8117C73.3633 71.0721 72.5001 71.055 71.7106 70.7624C70.9211 70.4707 70.2503 69.9196 69.8037 69.197C66.4553 64.9281 62.9733 60.7651 59.5502 56.5565L54.9218 50.8243C53.4335 50.704 52.6151 51.1263 52.1984 52.3328C51.8723 53.5743 50.7867 54.455 49.5199 54.5052C49.163 54.5298 48.8089 54.5904 48.4632 54.6861C48.0456 54.7827 47.7009 55.081 47.5402 55.4835C47.3804 55.8869 47.4243 56.3433 47.6598 56.707C48.4828 57.8954 49.3666 59.0375 50.3083 60.1313C51.9452 61.9117 51.9452 61.8814 54.5199 61.8511L54.6834 63.9628L56.8565 63.5556L57.005 66.889L59.7285 65.7422L59.3121 69.2425Z" fill="black"/>
<path d="M25.427 33.581C24.5338 34.1843 23.9387 34.6824 23.1801 35.0896C22.4215 35.4968 21.96 35.7686 21.1864 36.1758L22.1833 38.9211L20.0401 39.6607C20.1298 39.9921 20.1298 40.4448 20.3381 40.6115C21.0678 41.1844 21.8264 41.6522 22.7784 42.2251C22.4953 42.602 22.3318 43.0698 22.1235 43.085V43.0841C21.2854 43.1769 20.4408 42.9979 19.7112 42.5717C18.9806 42.1465 18.4023 41.4969 18.0603 40.7166C17.5446 39.9969 17.5942 39.0101 18.1799 38.3482C18.8965 37.689 19.2749 36.7326 19.2067 35.7534C19.1955 34.7392 19.8831 33.8538 20.8585 33.6265C21.647 33.3547 22.3467 32.8869 23.1801 32.6757V32.6767C24.0471 32.332 25.029 32.7278 25.427 33.581L25.427 33.581Z" fill="black"/>
<path d="M28.4332 13.1588L27.5401 14.9837C26.2153 15.4212 26.1265 13.8823 25.1297 13.5812H25.1288C24.9569 13.8094 24.8121 14.0575 24.6981 14.3198C24.5935 14.6513 24.6981 15.0443 24.5196 15.3606H24.5187C24.3991 15.5547 24.1945 15.6788 23.9684 15.693C23.7601 15.693 23.4032 15.5273 23.3882 15.3909C23.1995 14.4732 23.1052 13.5376 23.1052 12.6C23.1444 11.7108 23.8638 11.0082 24.742 11.0015C25.68 10.8954 26.6171 10.8206 27.5551 10.7449C28.7192 10.8045 29.845 11.19 30.8064 11.8576C31.7678 12.5262 32.5273 13.4514 33.0019 14.5309C33.1804 15.1189 33.285 15.8131 32.6002 16.0394C32.3321 16.1303 31.7668 15.7373 31.5286 15.421C30.883 14.2354 29.747 13.4049 28.4335 13.1587L28.4332 13.1588Z" fill="black"/>
<path d="M7.37665 18.3008V19.2658C7.46633 20.0347 8.12032 21.1512 6.88522 21.3473C5.9033 21.4978 5.73888 20.3065 5.50157 19.5224V19.5234C4.92325 18.2516 5.39413 16.742 6.58812 16.0384C7.28789 15.5858 7.82323 14.9068 8.47813 14.3793C9.21339 13.7334 10.2205 13.5062 11.1566 13.7761C11.4247 13.8518 11.663 14.2287 11.7966 14.5299C11.8143 14.7477 11.7387 14.9617 11.5882 15.118C9.28155 15.0128 9.1628 17.8036 7.37667 18.3008L7.37665 18.3008Z" fill="black"/>
<path d="M38.7607 37.0067C38.3141 36.3883 37.7937 35.966 37.7489 35.4982C37.6265 34.7983 37.7816 34.0777 38.1805 33.4924C39.2493 32.5739 40.1415 31.464 40.8152 30.2187C41.0189 29.9081 41.3412 29.6959 41.7037 29.6334C42.0671 29.5709 42.4399 29.6628 42.7342 29.8872C43.2415 30.3484 43.661 30.9005 43.9693 31.5161C43.9693 31.607 43.7908 31.9233 43.6273 32.089C43.092 32.6922 41.856 31.7869 41.6187 33.0691C41.4552 33.9442 40.6807 34.0341 40.0267 34.2908C39.0289 34.6989 39.6539 35.8457 38.7608 37.0067L38.7607 37.0067Z" fill="black"/>
</svg>
