<svg width="83" height="92" viewBox="0 0 83 92" fill="none" xmlns="http://www.w3.org/2000/svg">
<path d="M37.4518 59.3002C38.4566 58.5697 39.4737 57.8655 40.4654 57.1089C41.8354 56.0656 43.0743 54.9175 44.5876 53.9914C44.9791 53.7432 45.7873 54.1347 46.4007 54.2395H46.3998C46.2467 54.7628 45.9994 55.2533 45.6694 55.6873C44.143 56.9918 42.5519 58.2962 40.9345 59.5089C39.9879 60.2779 38.97 60.9551 37.8948 61.5308C36.5125 62.2088 35.5733 61.7265 35.0771 60.2263C34.838 59.5073 34.7987 58.7359 34.9641 57.9955C35.1295 57.2561 35.4931 56.5748 36.0164 56.0261C37.4904 54.3695 39.1209 52.8562 40.96 51.0039C39.4598 50.6518 38.0513 50.2603 36.6298 49.9868C35.4424 49.7518 34.386 49.3735 34.386 47.965C34.3713 46.7669 35.3278 45.7818 36.5258 45.7604C38.4371 45.6024 40.359 45.6327 42.2646 45.8513C43.3398 46.1183 44.4773 45.93 45.4083 45.3297C46.296 44.8433 47.2426 44.4748 48.226 44.234C51.4737 43.0728 54.7475 42.0033 57.9699 40.7513C63.7743 38.456 67.4657 33.8767 70.3612 28.6203C72.1218 25.411 71.2743 22.2551 68.4434 19.9328L68.4442 19.9336C64.9066 17.079 60.3028 15.9029 55.83 16.7113C54.121 16.9463 52.4127 17.2067 50.6906 17.3116C48.0816 17.4549 46.5297 16.6073 45.8641 14.0639H45.8649C45.3318 11.803 45.078 9.48543 45.1083 7.16308C45.0665 5.96832 45.4309 4.79482 46.1417 3.83343C46.8517 2.87206 47.8671 2.17846 49.0209 1.86728C51.3931 0.985339 53.8639 0.394103 56.3778 0.106671C62.7937 -0.487836 69.1918 1.41853 74.2354 5.4287C81.6578 11.3509 83.8877 19.281 82.0616 28.3859C80.6015 35.9787 76.3825 42.7623 70.218 47.4301C64.2017 52.0545 56.925 54.746 49.3477 55.1523C48.0432 55.244 47.339 54.3956 46.5168 53.6783C44.4949 51.9177 44.2992 51.839 42.0169 53.2868C40.6518 54.1639 39.3801 55.1785 38.2206 56.3127C37.6392 57.053 37.1602 57.8694 36.799 58.739L37.4518 59.3002ZM73.8446 23.4168L73.0225 28.7256H73.0233C74.0862 29.4184 75.1049 30.1767 76.0754 30.9947C76.8976 31.7645 77.5756 32.8339 76.7149 33.969C75.8543 35.104 74.8888 34.5693 73.9364 34.1386C73.4672 33.9297 73.0365 33.6693 72.5541 33.4867C70.4152 32.6261 70.2064 32.7169 68.7849 35.2342H68.7841C69.4891 36.0629 70.1426 36.9342 70.7404 37.8431C71.5642 38.8373 71.5363 40.285 70.6749 41.2472C69.7618 42.1996 68.6137 41.8737 67.5574 41.3774C66.501 40.882 65.497 40.3734 64.2835 39.7994L66.5142 47.0392C66.7484 47.0195 66.9802 46.9761 67.2054 46.909C67.4813 46.778 67.7434 46.6207 67.9882 46.4389C73.7318 42.4452 77.8879 36.5573 79.7278 29.8081C81.0323 25.0733 81.4631 20.169 79.4928 15.4596C76.1271 7.34603 69.8276 3.15897 61.2316 2.07641C57.0316 1.54167 52.9485 1.63257 49.153 4.04583C48.5045 4.34473 47.9509 4.81478 47.5505 5.40601C47.1509 5.99643 46.9199 6.68595 46.8831 7.39837C46.9404 9.41203 47.1804 11.4158 47.6004 13.3854C47.7233 13.9963 48.0836 14.5335 48.6019 14.8782C49.1211 15.223 49.7549 15.3474 50.3658 15.2246C51.2527 15.146 52.1264 14.9765 52.9748 14.8594C53.2745 14.0896 53.444 13.5549 53.7052 12.9546C55.2701 9.82393 57.1355 6.91523 60.3054 5.1285C60.9318 4.78947 62.1184 4.59376 62.4967 4.93278C63.0978 5.56333 63.3852 6.42971 63.2796 7.29454C62.8922 8.43771 62.3804 9.53576 61.7532 10.5684C61.2184 11.7034 60.7361 12.8637 60.2661 13.9341C61.8703 14.9905 62.6794 14.0512 63.6056 13.4772C65.3752 12.3299 67.2136 11.2932 69.1102 10.3727C70.4925 9.74624 72.3841 8.57278 73.4798 10.3727C74.5755 12.1726 72.8403 13.3206 71.7577 14.5335C70.6751 15.7463 69.9316 16.6209 69.071 17.6642L69.4362 18.3554C70.2429 18.1998 71.0568 18.0868 71.8758 18.0164C73.064 17.851 74.2711 17.8821 75.4494 18.1081C77.6408 18.7861 77.8758 20.5214 76.1013 21.956H76.1021C75.3774 22.4841 74.624 22.9722 73.8452 23.4169L73.8446 23.4168ZM51.3172 45.5921C50.2477 45.918 48.8646 46.257 47.5601 46.7664C45.8126 47.4575 45.6299 48.0709 46.2556 49.8053H46.2564C46.4848 50.4326 46.8869 50.9829 47.4151 51.3915C47.9441 51.8001 48.5779 52.0507 49.2429 52.1137C53.0645 52.8106 57.0084 52.2382 60.4739 50.4833C63.7086 49.0355 64.7264 46.7009 63.4742 43.4523C62.7045 41.4567 61.9609 41.157 59.9783 42.1478C59.0653 42.5917 58.1915 43.1002 57.3694 43.5563V46.9604L54.2649 44.3515L54.4737 48.0168C52.4519 48.201 52.7516 46.1006 51.3168 45.5921L51.3172 45.5921ZM55.4002 14C56.7047 14.6649 57.5786 14.7959 58.2565 13.3866C59.0394 11.7562 60.0171 10.2167 60.8655 8.61257C61.1111 7.91324 61.2946 7.19262 61.4133 6.46044C58.6905 8.28822 56.5925 10.9054 55.4001 13.9606L55.4002 14ZM64.8051 15.1743C66.1096 16.6482 67.1529 16.6352 68.2748 15.4355C69.3967 14.2358 70.2705 13.3874 71.2751 12.3572L71.2743 12.3564C68.8226 12.3293 66.4732 13.3382 64.8043 15.1349L64.8051 15.1743ZM43.0219 49.2191L43.2045 48.3454C42.3062 47.687 41.2318 47.3111 40.118 47.2669C39.0051 47.2227 37.9045 47.5118 36.9563 48.0972L43.0219 49.2191ZM68.719 39.8272C67.9886 36.8661 67.6889 36.7751 65.876 38.5227L68.719 39.8272ZM75.0459 19.8963C73.7414 19.6097 72.6719 19.4525 71.8497 20.7308C73.4932 21.2139 73.4932 21.2139 75.0582 19.8832L75.0459 19.8963ZM72.6981 31.1406L72.5155 31.7539L74.3679 32.2108L74.4719 31.7416L72.6981 31.1406Z" fill="#223A41"/>
<path d="M25.2803 22.8948C26.6888 22.5689 27.9932 22.2299 29.2978 21.9817V21.9809C30.0021 21.8155 30.7284 21.7582 31.4499 21.8114C32.1149 21.89 33.1589 22.098 33.2891 22.5026V22.5034C33.5045 23.2617 33.3653 24.0765 32.9108 24.7209C30.8865 27.3388 27.7682 28.8792 24.4583 28.8948C23.6623 28.8948 22.8803 28.7645 21.8494 28.6859C22.0451 31.6732 20.5449 33.9818 19.5017 36.4343C17.2447 41.5737 15.1452 46.7786 14.6752 52.4264H14.676C14.2879 55.9248 14.5622 59.4647 15.4843 62.8614C16.476 66.1083 18.6936 68.8409 21.6677 70.4788C23.52 71.6006 25.32 72.8003 27.1461 73.9614C27.9085 74.3872 28.4883 75.0776 28.7765 75.9014C29.0656 76.726 29.0418 77.6276 28.711 78.4359C27.4925 82.6252 25.0923 86.375 21.7978 89.2363C20.5015 90.192 19.0619 90.9355 17.5322 91.4409C15.7716 92.1189 14.2451 92.2368 12.9931 90.1364C12.1194 88.6624 10.2932 87.7886 9.07965 86.4711C0.353554 77.1448 -1.5904 66.0831 1.1617 53.9922C3.48321 43.7921 9.15742 35.5606 16.8148 28.5822C17.3954 27.9484 17.8392 27.2024 18.1193 26.39C19.4238 23.4027 20.5718 20.3901 21.8108 17.4027C22.1367 16.6068 22.6067 15.955 23.6107 16.0982V16.0991C24.5549 16.2309 25.2509 17.0498 25.228 18.003C25.3066 19.5032 25.2542 21.1599 25.2804 22.895L25.2803 22.8948ZM27.3809 27.0041C26.7544 26.5471 26.1812 26.5218 25.2288 27.461L27.3547 26.9656C28.9196 25.987 30.8374 25.4007 31.6204 23.1439C29.0114 23.2872 26.6897 23.6787 24.7334 25.4139C26.1149 25.2812 27.3547 25.2165 27.38 27.0033L27.3809 27.0041ZM20.5063 72.1219C19.6931 71.3178 18.3846 71.3178 17.5714 72.1219C16.0171 73.2299 14.8969 74.8438 14.4015 76.6872C13.7103 78.5788 12.7318 79.2961 11.532 79.0349C10.3315 78.7745 9.53636 77.574 9.53636 75.5914C9.54537 75.2295 9.57567 74.8675 9.62726 74.5088C9.91305 71.6035 11.2822 68.9118 13.4621 66.9693C14.5185 66.0169 14.7666 65.1694 13.7365 64.1262C13.3442 64.1557 12.9602 64.2531 12.6015 64.4128C11.1316 65.4274 9.71981 66.5247 8.37521 67.6999C7.44903 68.5606 6.56219 69.3565 5.32312 68.6916C4.08413 68.0266 4.43625 66.6697 4.81458 65.5609H4.81377C5.64659 62.449 8.02224 59.985 11.1012 59.0385C11.9749 58.7772 13.3711 58.7641 12.9535 57.291C12.5359 55.817 11.2576 56.2862 10.2144 56.4172C9.67801 56.4999 9.14654 56.6129 8.62329 56.7562C8.01895 56.938 7.40478 57.0862 6.78407 57.1993C4.87934 57.4343 3.95315 56.3124 4.81465 54.5903L4.81383 54.5912C5.29123 53.6371 6.07736 52.8739 7.04456 52.426C8.65287 51.8823 10.3145 51.5146 12.0014 51.3295C13.0316 51.1731 13.4885 50.8472 13.2273 50.1421L5.24477 46.7249V46.7257C4.96225 47.1671 4.71331 47.6289 4.50122 48.108C1.99712 54.3381 1.07828 61.0924 1.82752 67.7655C2.78398 76.1028 7.16988 83.6652 13.9323 88.6358C16.1761 90.358 18.0416 90.358 20.2067 88.4663C23.2972 85.8065 25.5615 82.3165 26.7283 78.4095C26.87 77.661 26.9355 76.9011 26.924 76.1395C26.6382 76.1027 26.3491 76.1027 26.0633 76.1395C24.1045 77.1345 22.6937 78.9524 22.2155 81.0964C21.6938 82.988 20.4549 83.7053 19.111 83.1837H19.1102C17.9743 82.7374 17.2676 81.5951 17.3758 80.379C17.4495 78.2156 18.1029 76.1125 19.2674 74.2872C19.7104 73.596 20.1149 72.8263 20.5064 72.1221L20.5063 72.1219ZM10.2276 37.9848L12.0538 40.5937C11.1538 40.4897 10.7493 40.4635 10.3447 40.3718C9.94021 40.2801 9.54877 40.0975 8.94936 39.8764C8.25821 41.0761 7.64486 42.1463 7.01924 43.2421H7.01842C6.51152 44.0454 6.67858 45.1002 7.40986 45.707C9.05336 47.3759 11.3938 48.1604 13.7105 47.8205C14.3369 45.9027 14.8061 44.1683 15.458 42.5117C16.828 38.9896 18.2889 35.5069 19.7236 32.0767C20.1413 31.0719 20.5196 30.081 19.4108 29.0246C16.1107 30.6288 14.0888 33.4858 11.9369 36.0818L13.0588 38.6907L10.2276 37.9848ZM12.0931 77.6773C12.6876 76.1714 13.4074 74.7187 14.2452 73.3338C15.3212 72.0662 16.4946 70.8845 17.7541 69.7988L15.5103 67.3592C11.7411 70.1377 10.2145 74.4296 12.0931 77.6773ZM22.4627 72.981C19.215 76.2419 18.3018 79.777 20.1674 81.8644C20.5965 80.4993 21.1787 79.1867 21.9018 77.9509C23.0179 76.7307 24.2504 75.6212 25.5803 74.6376L22.4627 72.981ZM13.4492 62.3248L12.98 60.3161C8.9755 60.7599 6.32738 63.5508 6.45841 67.3209L6.45759 67.32C7.38294 66.321 8.37623 65.3883 9.4319 64.5294C10.7274 63.7162 12.0687 62.98 13.4494 62.3248L13.4492 62.3248ZM12.8358 54.3677C12.7441 52.476 11.4011 52.7635 10.3055 52.8543C7.99703 53.0501 6.83585 53.9762 6.54844 55.8287L12.8358 54.3677ZM23.6101 18.5094L22.9713 18.2752L21.1452 21.8489L22.7494 24.4578H22.7502C23.7214 22.6358 24.0261 20.532 23.6109 18.5094L23.6101 18.5094Z" fill="#223A41"/>
</svg>
